<svg id="Слой_1" data-name="Слой 1" 
    xmlns="http://www.w3.org/2000/svg" viewBox="0 0 1108.53 1122.92" style="enable-background:new 0 0 1108.53 1122.92" xml:space="preserve">
    <!-- <defs>
        <style>.cls-1{fill:#ecb144;}</style>
    </defs> -->
    <title>logo</title><g>
    <path d="M460.1,7.1c-57.63,167.46,8.25,310.33,84.38,444.42q9.75-2.62,19.59-5.77c33.18-10.56,67.18-25.33,101.75-44.37C536,293,439.93,174.42,494.89,2.64Q521.79,0,549.38,0q7.2,0,14.36.18c-57.16,156.18,35.66,265.24,159,366.34C795.46,317.43,870.18,249.83,944.84,163a565.73,565.73,0,0,1,42.48,47.2c-71,81.74-142.57,147.27-213.08,197.13,13.4,10.32,27,20.61,40.52,30.92,58.3,44.29,116.92,88.83,167.17,137.11,40.65-40.72,76.63-96.48,106.36-171.75a559.21,559.21,0,0,1,20.24,107.1c-24.54,45.58-51.6,82.75-80.73,112.84,24.66,28.69,45.78,58.9,61.83,91.27A557.11,557.11,0,0,1,1054.88,806c-10.88-51.28-38-97.53-74.74-140.69-86.4,63.81-186.85,78.8-291.77,73.32,19.77,67.91,23.09,136.69-3.35,208.51a900,900,0,0,1,98.37,124.76,557.9,557.9,0,0,1-60,23.46,840,840,0,0,0-67.78-87.26c-22.26,37.19-53,75.31-94.06,114.64-4,.08-8.07.15-12.13.15a566.47,566.47,0,0,1-77.42-5.34c66.54-55.81,109.34-108.86,134.35-160.09A715.79,715.79,0,0,0,510.8,881.8c-69.52-45.84-141.23-74.44-208.44-85-65.19-10.27-125.87-3.51-175.53,21a211,211,0,0,0-55,39,563.06,563.06,0,0,1-31-57.07,273.69,273.69,0,0,1,58-38.45c61.49-30.37,135.1-39,213.05-26.69,75.94,12,156.25,43.81,233.36,94.64A771.25,771.25,0,0,1,629,893.15c12.08-54.91,5.67-108.12-11.38-160.88-54.55-6.75-109.71-17.2-164.19-27.53C283.85,672.6,121.69,641.89,19.32,746.89A557.62,557.62,0,0,1,0,677.68c120.89-100.06,289.4-68.16,465-34.87,41.62,7.89,83.69,15.86,125.48,21.89-20.43-43.54-45.8-87.14-71.64-131.52l-6.05-10.39c-47.69,7.91-93.72,7.88-137.49.08-65.7-11.69-126.09-40.65-179.21-86.18-48.94-41.95-91.52-98-126.12-167.56a563.15,563.15,0,0,1,41.76-59.32c33.19,76.55,75.68,136.46,125.32,179,44.36,38,94.61,62.17,149.11,71.87A335.14,335.14,0,0,0,479,463.79C405.25,331.56,344.34,190.34,388.8,23.35A558,558,0,0,1,460.1,7.1ZM576.89,507.64c32.45,55.76,64,110.48,87.58,165.3,96.51,7,189.11-3.31,268.51-57-46.75-44.42-101.64-86.13-156.22-127.59-19.58-14.88-39.13-29.73-58.31-44.67-45.92,27.35-91.2,48-135.38,62.06q-3.09,1-6.18,1.93Z"/>
    </g>
</svg>